/vscmnt/brussel_pixiu_data/_data_brussel/112/vsc11236/PredSimResults/SUBJ07opt3D/trackIG/worker_13.mot
version=1
nRows=9
nColumns=50
inDegrees=yes
endheader
                time	         pelvis_tilt	         pelvis_list	     pelvis_rotation	           pelvis_tx	           pelvis_ty	           pelvis_tz	       hip_flexion_r	     hip_adduction_r	      hip_rotation_r	        knee_angle_r	       ankle_angle_r	         mtp_angle_r	       hip_flexion_l	     hip_adduction_l	      hip_rotation_l	        knee_angle_l	       ankle_angle_l	         mtp_angle_l	    lumbar_extension	      lumbar_bending	     lumbar_rotation	 ercspn_r/activation	 intobl_r/activation	 extobl_r/activation	    abd_r/activation	    add_r/activation	hamstrings_r/activation	bifemsh_r/activation	glut_max_r/activation	iliopsoas_r/activation	rect_fem_r/activation	  vasti_r/activation	gastroc_r/activation	 soleus_r/activation	tib_ant_r/activation	 ercspn_l/activation	 intobl_l/activation	 extobl_l/activation	    abd_l/activation	    add_l/activation	hamstrings_l/activation	bifemsh_l/activation	glut_max_l/activation	iliopsoas_l/activation	rect_fem_l/activation	  vasti_l/activation	gastroc_l/activation	 soleus_l/activation	tib_ant_l/activation	
          0.38989511	        -11.10356711	          1.41119234	         -3.06636988	          0.70181119	          0.85384061	          0.00165435	         -7.91428141	          0.17428593	          3.20945594	        -15.08409401	         -5.13278946	         35.55836496	         32.09973003	          1.11692970	          0.59270069	         -2.97841415	          5.51159323	          0.41125800	        -13.27365220	         -2.02405535	          6.38943375	          0.12074920	          0.00999999	          0.00999999	          0.01746245	          0.07914945	          0.02370003	          0.01000018	          0.01630270	          0.56714384	          0.04296700	          0.01630270	          0.18081855	          0.14563735	          0.00999999	          0.15554362	          0.03008292	          0.00999999	          0.08320209	          0.19381793	          0.26061357	          0.31691490	          0.06230784	          0.02890112	          0.00999999	          0.00999999	          0.01129964	          0.00999999	          0.68710714	
          0.39769301	        -11.07116010	          1.30467277	         -3.03292235	          0.71801548	          0.85175473	          0.00106718	         -8.11566565	          0.25632059	          3.03595800	        -16.67281121	         -5.82498695	         35.54673148	         31.57654791	          1.29998811	          1.12142512	         -3.45572265	          4.61662258	          0.42019169	        -13.04496669	         -2.06066773	          6.44253277	          0.12286440	          0.00999999	          0.01119761	          0.01545398	          0.10592752	          0.02097414	          0.04130960	          0.01442762	          0.65624428	          0.03802507	          0.01442762	          0.16002137	          0.12888660	          0.00999999	          0.13765348	          0.02662288	          0.00999999	          0.07363245	          0.21470746	          0.23063862	          0.28046434	          0.12417157	          0.02557701	          0.00999999	          0.01276820	          0.00999999	          0.01276820	          0.60807823	
          0.40549091	        -11.03679350	          1.23191974	         -2.97961994	          0.73407422	          0.84963661	          0.00050456	         -7.99736913	          0.32277134	          2.87055154	        -18.83064177	         -6.47421213	         35.30861351	         31.09612889	          1.44890169	          1.68843657	         -4.53297027	          3.96535983	          0.35580584	        -12.84364366	         -2.14107703	          6.44825108	          0.16003158	          0.00999999	          0.00999999	          0.01367651	          0.09374407	          0.01856176	          0.04657858	          0.01276820	          0.58076512	          0.03365154	          0.01276820	          0.14161621	          0.11406247	          0.00999999	          0.12182101	          0.02356080	          0.00999999	          0.14016630	          0.19339250	          0.20411129	          0.24820621	          0.16291465	          0.02263522	          0.00999999	          0.01129964	          0.01276820	          0.01129964	          0.74213301	
          0.41328881	        -11.00367175	          1.20008930	         -2.90754274	          0.74988202	          0.84764232	         -0.00007653	         -7.53615297	          0.36047162	          2.71289017	        -21.53878069	         -7.20745766	         34.82299949	         30.62320664	          1.62274883	          2.17259814	         -5.64061295	          3.51302947	          0.33515329	        -12.68416647	         -2.26459185	          6.40966052	          0.18373433	          0.00999999	          0.00999999	          0.01210348	          0.08296192	          0.01642685	          0.09367870	          0.01129964	          0.51396734	          0.02978105	          0.01129964	          0.12532796	          0.10094336	          0.00999999	          0.13322110	          0.02085091	          0.00999999	          0.19302466	          0.17471612	          0.18063505	          0.21965831	          0.20746316	          0.02003179	          0.00999999	          0.00999999	          0.01129964	          0.00999999	          0.83033505	
          0.42108672	        -10.97400402	          1.19773229	         -2.81138387	          0.76531237	          0.84594320	         -0.00067666	         -6.72743411	          0.38269895	          2.55713290	        -24.73404561	         -8.16948520	         34.04496188	         30.20390890	          1.82513191	          2.57199973	         -6.76460236	          2.93324769	          0.30181882	        -12.58403991	         -2.41689081	          6.32444653	          0.23542897	          0.00999999	          0.00999999	          0.01071138	          0.07341990	          0.01453748	          0.08290407	          0.00999999	          0.45485243	          0.02635573	          0.00999999	          0.11091313	          0.08933317	          0.00999999	          0.15954284	          0.01845270	          0.00999999	          0.27365174	          0.16563427	          0.15985897	          0.19439390	          0.25983860	          0.01772779	          0.00999999	          0.00999999	          0.00999999	          0.00999999	          0.85680228	
          0.42888462	        -10.94907935	          1.21045106	         -2.69038853	          0.78026532	          0.84470977	         -0.00127186	         -5.58622784	          0.40503085	          2.39850142	        -28.32515165	         -9.39039943	         32.75584194	         29.89086767	          2.04047836	          2.87714453	         -8.07889076	          2.72233323	          0.25545512	        -12.55463881	         -2.58246212	          6.19496896	          0.31510208	          0.00999999	          0.00999999	          0.00999999	          0.06497538	          0.01286543	          0.07336870	          0.00999999	          0.40253673	          0.02332437	          0.00999999	          0.09815625	          0.07905835	          0.09492759	          0.15938262	          0.01633033	          0.00999999	          0.34013130	          0.18086915	          0.14147249	          0.17203532	          0.28813217	          0.01568880	          0.00999999	          0.01485417	          0.00999999	          0.00999999	          0.75825557	
          0.43668252	        -10.92972620	          1.22698053	         -2.54602599	          0.79469574	          0.84404923	         -0.00185334	         -4.15711139	          0.43963339	          2.23797717	        -32.21599723	        -10.66998013	         30.60099072	         29.68517343	          2.26019846	          3.11478543	         -9.58381207	          2.92569195	          0.21751303	        -12.59675294	         -2.74381375	          6.02896593	          0.36720465	          0.00999999	          0.00999999	          0.00999999	          0.07686452	          0.01138569	          0.06493007	          0.00999999	          0.35623821	          0.08533237	          0.00999999	          0.08686663	          0.06996531	          0.24195247	          0.16658140	          0.01445207	          0.00999999	          0.39550771	          0.21422843	          0.12520077	          0.15224836	          0.30883960	          0.01388432	          0.00999999	          0.02842612	          0.00999999	          0.00999999	          0.67104339	
          0.44448042	        -10.91575746	          1.23692752	         -2.38466947	          0.80865665	          0.84396356	         -0.00240321	         -2.53404680	          0.50175960	          2.08996208	        -36.22720332	        -11.56187387	         27.78693095	         29.53864890	          2.47268158	          3.32258656	        -11.20693129	          3.61168134	          0.19172016	        -12.69638039	         -2.88605771	          5.83859682	          0.39432699	          0.00999999	          0.00999999	          0.00999999	          0.07537708	          0.01007614	          0.08132082	          0.00999999	          0.31526481	          0.16719159	          0.00999999	          0.07687550	          0.06191812	          0.22750135	          0.17206568	          0.01278984	          0.00999999	          0.42831028	          0.23482738	          0.11080057	          0.13473723	          0.32464905	          0.01228739	          0.00999999	          0.03003203	          0.01436524	          0.04861735	          0.59386208	
          0.45227833	        -10.90679856	          1.22897923	         -2.20760448	          0.82224403	          0.84443134	         -0.00291568	         -0.81400740	          0.60147272	          1.93985851	        -40.12497049	        -11.56656176	         25.14732950	         29.39803473	          2.66667364	          3.53074178	        -12.84265330	          4.64627958	          0.22402830	        -12.83632247	         -2.99434095	          5.62960811	          0.38171132	          0.01293888	          0.00999999	          0.00999999	          0.06983601	          0.00999999	          0.09578239	          0.00999999	          0.27900404	          0.18262672	          0.00999999	          0.06803352	          0.05479649	          0.27078645	          0.18903885	          0.01131879	          0.00999999	          0.42411760	          0.25029252	          0.09805664	          0.11924018	          0.31176430	          0.01087413	          0.00999999	          0.02657784	          0.01630271	          0.05163195	          0.52555793	
